<svg width="178" height="66" viewBox="0 0 178 66" fill="none" xmlns="http://www.w3.org/2000/svg">
<path d="M31.9231 9.06144V8.93011C31.9231 8.31725 32.1201 7.77006 32.5141 7.28852C32.9081 6.80699 33.4115 6.56622 34.0244 6.56622C34.6372 6.56622 35.1844 6.76321 35.666 7.1572C36.1475 7.55118 36.4101 8.07649 36.4539 8.73312C36.4977 9.38976 36.3007 9.93696 35.8629 10.3747C35.4252 10.8125 34.8999 11.0314 34.287 11.0314L33.893 11.1627L34.0244 11.3597L33.893 12.082L33.6304 14.1832C33.7179 14.2708 33.7617 14.3583 33.7617 14.4459L33.4991 15.7591C33.4115 15.9342 33.324 16.0656 33.2364 16.1531L33.1051 16.6784C32.93 17.3788 32.7768 17.9479 32.6454 18.3857C32.5141 18.8234 32.4047 19.1736 32.3171 19.4363V19.699C32.2296 20.1367 32.1639 20.4869 32.1201 20.7496C32.0763 21.0122 31.9231 21.45 31.6605 22.0628C31.4854 22.4131 31.4854 22.9821 31.6605 23.7701L31.7918 23.9014C31.7918 24.1641 31.9012 24.4705 32.1201 24.8207C32.339 25.1709 32.4484 25.4774 32.4484 25.74C32.536 27.491 32.4047 28.9794 32.0545 30.2051L32.3171 30.9931C33.3677 31.5184 33.6742 32.0875 33.2364 32.7004L33.893 32.963C34.9437 33.4883 35.6878 33.948 36.1256 34.342C36.5634 34.7359 37.0011 35.1518 37.4389 35.5896C37.7891 35.6771 38.0517 35.8084 38.2268 35.9835L38.6208 36.1149C40.4594 37.3406 42.298 38.829 44.1366 40.58L44.6619 40.974V41.1053L44.5306 41.368L44.9245 41.6306H45.0559C45.3185 41.8057 45.4936 41.8933 45.5812 41.8933H45.7125C45.8001 41.8933 45.8876 41.8495 45.9752 41.7619L46.2378 41.6306C46.4129 41.4555 46.588 41.3242 46.7631 41.2366H47.2884C47.376 41.2366 47.376 41.2804 47.2884 41.368L46.7631 41.6306L46.1065 42.4186H47.0258L47.9451 42.5499C48.2077 42.4624 48.4266 42.3748 48.6017 42.2873L49.2583 41.8933C49.521 41.8057 49.7836 41.8933 50.0463 42.1559H50.1776C50.2652 42.2435 50.2214 42.3748 50.0463 42.5499L48.4704 43.9945C48.0326 44.3447 47.6386 44.5636 47.2884 44.6511L45.5812 45.8331C45.4936 45.9206 45.4061 45.9206 45.3185 45.8331L44.9245 45.3078L44.6619 44.7825L44.3336 44.3228L43.9396 43.7975L43.6113 43.4035L43.3486 43.0752L42.8233 42.6812C42.6482 42.6812 42.4731 42.6375 42.298 42.5499L40.5907 41.2366C40.3281 41.2366 40.0217 41.1053 39.6714 40.8427C38.3582 39.7045 37.4827 39.0041 37.0449 38.7414L36.2569 38.2161L34.681 37.9535C34.1557 37.8659 33.4553 37.6032 32.5798 37.1655L31.5291 36.6402C30.8287 36.29 30.3472 36.1149 30.0845 36.1149L29.5592 35.8522C29.209 35.7647 28.9464 35.6771 28.7713 35.5896L28.5086 35.3269C28.3335 35.3269 28.1584 35.3707 27.9833 35.4582L25.3568 36.7715L22.0736 38.2161C21.1981 38.9165 20.3663 39.4856 19.5784 39.9234L18.1338 40.58L15.9012 42.1559C15.7261 42.331 15.551 42.331 15.3759 42.1559L15.1132 42.4186C14.8506 42.5061 14.6755 42.5499 14.5879 42.5499L14.0626 42.8126V43.0752H13.8L13.5373 43.4692C13.3622 43.8194 13.1871 44.0164 13.012 44.0602C12.8369 44.104 12.7274 44.1696 12.6837 44.2572C12.6399 44.3447 12.5961 44.4104 12.5523 44.4542L12.2897 44.7168L11.8957 44.9795L11.3047 44.9138L10.5168 45.0451L9.99146 45.1765C9.5537 45.264 9.2035 45.1983 8.94084 44.9795C8.67819 44.7606 8.45931 44.4323 8.28421 43.9945C8.1091 43.7319 8.19666 43.513 8.54686 43.3379L8.67819 43.2065C8.76574 43.119 8.89707 43.0752 9.07217 43.0752H9.86014L10.9108 42.6812L11.4361 42.5499C11.4361 42.3748 11.4798 42.2435 11.5674 42.1559C11.6549 42.0684 11.7863 42.0246 11.9614 42.0246V41.8933C11.8738 41.7182 11.83 41.5431 11.83 41.368C11.7425 41.1929 11.7206 41.0615 11.7644 40.974C11.8082 40.8864 11.8519 40.8427 11.8957 40.8427H11.9614L12.0927 41.2366C12.1803 41.6744 12.3116 41.8057 12.4867 41.6306L12.618 41.368C12.7056 41.1929 12.8369 41.1053 13.012 41.1053L13.2746 41.368L13.5373 41.1053L13.406 40.974C13.406 40.8864 13.4497 40.8427 13.5373 40.8427L14.0626 40.3173C14.5004 39.792 15.0257 39.3105 15.6385 38.8727C16.8643 37.9097 18.1775 37.1655 19.5784 36.6402C20.0161 36.2024 20.4977 35.9835 21.023 35.9835C21.3732 35.3707 21.8985 34.714 22.5989 34.0136C23.2118 33.5759 23.6495 33.2694 23.9122 33.0943C24.0873 32.7441 24.3061 32.569 24.5688 32.569H24.7001L24.9628 32.3064C25.1379 32.2188 25.2692 32.1313 25.3568 32.0437V31.3871C25.3568 30.9493 25.4005 30.5991 25.4881 30.3365C25.5756 30.0738 25.7945 29.9425 26.1447 29.9425L26.67 29.4172C26.4949 29.067 26.4074 28.673 26.4074 28.2352H26.2761C26.101 27.9726 26.0134 27.7099 26.0134 27.4473C25.7507 27.0095 25.5756 26.6593 25.4881 26.3966H25.0941C25.0066 26.6593 24.7877 26.8344 24.4375 26.922L24.3061 27.1846C23.9559 27.7975 23.6495 28.2571 23.3869 28.5635C23.1242 28.87 22.6427 29.2421 21.9423 29.6798C21.5045 30.1176 21.1981 30.5991 21.023 31.1244C20.9354 31.3871 20.9354 31.6497 21.023 31.9124L20.8916 32.1751H21.023C21.023 32.3502 21.0667 32.4377 21.1543 32.4377H21.2856C21.4607 32.5253 21.5483 32.6347 21.5483 32.766C21.5483 32.8974 21.4169 32.9411 21.1543 32.8974C20.8916 32.8536 20.6946 32.766 20.5633 32.6347C20.432 32.5034 20.3225 32.4377 20.235 32.4377L19.841 32.8317C19.6659 33.0943 19.4908 33.2038 19.3157 33.16C19.1406 33.1162 19.0968 33.0506 19.1844 32.963L19.3157 32.8317C19.4033 32.6566 19.4033 32.569 19.3157 32.569L18.2651 32.8317C18.1775 32.9192 18.0681 32.9192 17.9368 32.8317C17.8054 32.7441 17.8273 32.6566 18.0024 32.569L18.6591 32.3064C18.6591 32.2188 18.6153 32.1751 18.5277 32.1751C18.1775 32.3502 17.8273 32.3939 17.4771 32.3064L16.8205 32.1751L16.6892 32.0437C16.6892 31.9562 16.7329 31.9124 16.8205 31.9124C17.1707 31.9999 17.6084 31.9562 18.1338 31.7811L19.0531 31.3871L20.1037 30.2051L20.235 29.9425C20.5852 29.2421 20.9573 28.6073 21.3513 28.0382C21.7453 27.4692 22.1611 27.0095 22.5989 26.6593L22.7302 26.134C22.9053 25.7838 23.0804 25.4774 23.2555 25.2147C23.4306 24.952 23.6495 24.6018 23.9122 24.1641L24.3061 23.6388C24.6564 23.1135 25.0503 22.8508 25.4881 22.8508L25.8821 22.4568C25.9696 22.3693 26.0134 22.2379 26.0134 22.0628L26.2761 21.8002L26.1447 21.6689C25.6194 21.2311 25.3568 20.8371 25.3568 20.4869C25.2692 19.8741 25.4662 19.3488 25.9477 18.911C26.4293 18.4732 26.9108 18.2762 27.3923 18.32C27.8739 18.3638 28.246 18.517 28.5086 18.7797L28.7713 19.0423C28.8588 19.0423 28.9026 19.0861 28.9026 19.1736L29.4279 19.4363V19.8303C29.603 20.0054 29.6906 20.1367 29.6906 20.2243C29.8657 19.9616 30.1283 19.6552 30.4785 19.305L31.1352 17.2037C31.1352 16.8535 31.2227 16.5033 31.3978 16.1531L31.6605 15.7591V15.4965L32.0545 13.9206H32.3171L32.7111 12.3446C32.7986 12.082 32.7986 11.7755 32.7111 11.4253L32.1858 10.1121L31.9231 9.06144Z" fill="white"/>
<path d="M12.6075 55.2691H5.46823V58.4942H8.796V60.3854C8.796 61.4702 8.40018 62.4524 6.45043 62.4524C4.50068 62.4524 4.10486 61.4848 4.10486 60.3854H0.293318C0.293318 63.9623 2.22841 65.6775 6.45043 65.6775C10.6578 65.6775 12.6075 63.9477 12.6075 60.3854V55.2691ZM19.4959 65.6775C23.9965 65.6775 25.9462 63.9477 25.9462 60.3854C25.9462 56.8377 23.9965 55.1225 19.4959 55.1225C14.9807 55.1225 13.0456 56.823 13.0456 60.3854C13.0456 63.9623 14.9807 65.6775 19.4959 65.6775ZM19.4959 62.4524C17.253 62.4524 16.8572 61.4848 16.8572 60.3854C16.8572 59.3005 17.2383 58.3476 19.4959 58.3476C21.7535 58.3476 22.1347 59.3152 22.1347 60.3854C22.1347 61.4702 21.7389 62.4524 19.4959 62.4524ZM38.3835 59.1979C38.3835 56.911 36.7856 55.2691 34.4546 55.2691H26.3918V65.5309H30.2033V63.1267H32.4463L33.8683 65.5309H38.3835L36.5657 62.5843C37.6945 61.9246 38.3835 60.6932 38.3835 59.1979ZM30.2033 58.4942H33.7217C34.1028 58.4942 34.5719 58.4942 34.5719 59.1979C34.5719 59.9016 34.1028 59.9016 33.7217 59.9016H30.2033V58.4942ZM46.4413 55.2691H38.8182V65.5309H46.4413C48.9188 65.5309 51.2497 63.889 51.2497 60.4C51.2497 56.911 48.9188 55.2691 46.4413 55.2691ZM45.2685 62.3058H42.6298V58.4942H45.2685C46.0895 58.4942 47.4382 58.4942 47.4382 60.4C47.4382 62.3058 46.0895 62.3058 45.2685 62.3058ZM60.1935 65.5309H64.3862L60.1348 55.2691H54.4761L50.2248 65.5309H54.4175L55.1212 63.6838H59.4898L60.1935 65.5309ZM56.118 61.045L57.3055 57.9079L58.4929 61.045H56.118ZM74.0992 55.2691V61.3236L69.6719 55.2691H64.6876V65.5309H68.4992V59.4764L72.9264 65.5309H77.9107V55.2691H74.0992Z" fill="white"/>
<g clip-path="url(#clip0_4_24)">
<path d="M117.028 44.9748C114.995 44.8951 113.331 44.3461 112.03 43.3263C111.782 43.1315 111.19 42.5474 110.992 42.3011C110.464 41.6466 110.106 41.0096 109.866 40.3028C109.13 38.1273 109.509 35.2725 110.95 32.1395C112.184 29.4572 114.087 26.7968 117.409 23.1123C117.898 22.5702 119.355 20.9846 119.364 20.9846C119.368 20.9846 119.288 21.1203 119.188 21.2855C118.325 22.7127 117.586 24.3939 117.183 25.8493C116.537 28.1845 116.615 30.1886 117.412 31.7426C117.962 32.8132 118.904 33.7405 119.964 34.2531C121.82 35.1502 124.537 35.2244 127.854 34.4703C128.083 34.4181 139.402 31.4533 153.008 27.8819C166.614 24.31 177.748 21.39 177.75 21.3924C177.754 21.3955 146.139 34.7434 129.727 41.6682C127.128 42.7646 126.433 43.0415 125.212 43.4648C122.088 44.547 119.29 45.0634 117.028 44.9748Z" fill="white"/>
</g>
<defs>
<clipPath id="clip0_4_24">
<rect width="68.25" height="24" fill="white" transform="translate(109.5 20.9846)"/>
</clipPath>
</defs>
</svg>
